<?xml version="1.0" encoding="UTF-8" standalone="no"?>
<!-- Created with Inkscape (http://www.inkscape.org/) -->

<svg
   width="2157.4739"
   height="512"
   viewBox="0 0 570.8316 135.46667"
   version="1.1"
   id="svg1"
   inkscape:version="1.3 (0e150ed6c4, 2023-07-21)"
   sodipodi:docname="logo path.svg"
   inkscape:export-filename="simulo_emojio.png"
   inkscape:export-xdpi="96"
   inkscape:export-ydpi="96"
   xmlns:inkscape="http://www.inkscape.org/namespaces/inkscape"
   xmlns:sodipodi="http://sodipodi.sourceforge.net/DTD/sodipodi-0.dtd"
   xmlns="http://www.w3.org/2000/svg"
   xmlns:svg="http://www.w3.org/2000/svg">
  <sodipodi:namedview
     id="namedview1"
     pagecolor="#101010"
     bordercolor="#000000"
     borderopacity="0.25"
     inkscape:showpageshadow="2"
     inkscape:pageopacity="0.0"
     inkscape:pagecheckerboard="true"
     inkscape:deskcolor="#000000"
     inkscape:document-units="px"
     inkscape:zoom="0.27653202"
     inkscape:cx="929.36796"
     inkscape:cy="329.07582"
     inkscape:window-width="1920"
     inkscape:window-height="1003"
     inkscape:window-x="1920"
     inkscape:window-y="0"
     inkscape:window-maximized="1"
     inkscape:current-layer="layer1"
     showgrid="true">
    <inkscape:grid
       id="grid2"
       units="px"
       originx="-134.0619"
       originy="-0.00011773354"
       spacingx="135.46666"
       spacingy="135.46666"
       empcolor="#0099e5"
       empopacity="0.30196078"
       color="#0099e5"
       opacity="0.14901961"
       empspacing="5"
       dotted="false"
       gridanglex="30"
       gridanglez="30"
       visible="true" />
  </sodipodi:namedview>
  <defs
     id="defs1" />
  <g
     inkscape:label="Layer 1"
     inkscape:groupmode="layer"
     id="layer1"
     transform="translate(-35.470545,-3.1150332e-5)">
    <path
       style="font-weight:600;font-size:23.1545px;line-height:1.3;font-family:Urbanist;-inkscape-font-specification:'Urbanist Semi-Bold';letter-spacing:-0.727191px;mix-blend-mode:lighten;fill:#fbf8ff;stroke-width:4.10898;stroke-linecap:round;stroke-linejoin:round;paint-order:stroke fill markers"
       d="m 205.59819,127.34236 q -7.94677,0 -16.29484,-3.13052 -8.34815,-3.2108 -15.33165,-8.26785 -6.90321,-5.13733 -10.7562,-10.83649 l 13.8065,-9.471913 q 2.08704,3.050299 6.66242,6.501903 4.57538,3.45161 10.35482,5.94002 5.77951,2.48835 11.47866,2.48835 4.97676,0 9.71271,-1.92646 4.73596,-2.00675 7.78619,-5.61893 3.13052,-3.692408 3.13052,-8.749454 0,-7.144013 -6.42162,-12.361637 -6.34132,-5.297775 -16.77643,-7.384811 -16.29484,-2.889721 -25.68647,-11.799751 -9.31134,-8.99025 -9.31134,-20.95051 0,-8.82974 4.65567,-15.572445 4.65567,-6.742705 12.28135,-10.5154 7.62568,-3.852914 16.45535,-3.852914 7.54546,0 14.36838,2.729142 6.823,2.729211 11.96026,7.38488 5.13734,4.655669 7.78619,10.5154 l -15.17107,7.144012 q -2.48834,-5.458353 -8.10728,-8.187565 -5.53864,-2.809431 -10.9167,-2.809431 -4.17407,0 -8.02706,1.685658 -3.77269,1.605439 -6.26104,4.575449 -2.40812,2.969941 -2.40812,6.903214 0,5.538643 4.73596,9.792935 4.81618,4.254361 11.07728,5.699222 12.52215,2.88972 22.07429,7.625678 9.55213,4.735958 14.93027,11.879971 5.37806,7.144082 5.37806,17.338394 0,9.792933 -5.21755,17.338323 -5.13727,7.46517 -13.64592,11.71946 -8.42837,4.17407 -18.30159,4.17407 z m 45.1268,-82.357244 h 16.69622 v 80.270214 h -16.69622 z m 8.42837,-11.639172 q -3.7727,0 -6.34133,-2.488413 -2.56863,-2.488344 -2.56863,-6.261039 0,-3.692405 2.56863,-6.180818 2.56863,-2.568633 6.34133,-2.568633 3.69247,0 6.2611,2.568633 2.56864,2.488413 2.56864,6.180818 0,3.772695 -2.56864,6.261039 -2.48841,2.488413 -6.2611,2.488413 z M 281.1626,125.25533 V 44.985116 h 16.69622 v 8.508653 q 4.174,-4.976757 10.19431,-7.866478 6.10053,-2.88972 13.16432,-2.88972 8.58888,0 15.81318,4.174002 7.22437,4.093783 11.47866,10.916777 4.17407,-6.822994 11.31809,-10.916777 7.14408,-4.174002 15.81324,-4.174002 8.82974,0 16.13433,4.334581 7.30459,4.334581 11.63917,11.639172 4.33459,7.304591 4.33459,16.134332 V 125.25533 H 391.05249 V 79.180237 q 0,-5.297845 -2.56864,-9.712715 -2.56863,-4.49509 -6.90321,-7.144013 -4.33458,-2.729211 -9.63242,-2.729211 -7.94677,0 -13.5657,5.618932 -5.53865,5.618863 -5.53865,13.967007 V 125.25533 H 336.14772 V 79.180237 q 0,-8.348144 -5.61893,-13.967007 -5.61893,-5.618932 -13.5657,-5.618932 -5.21755,0 -9.63242,2.729211 -4.33458,2.648923 -6.90322,7.144013 -2.56863,4.41487 -2.56863,9.712715 V 125.25533 Z M 415.55008,95.15399 V 44.985116 h 16.69615 v 46.075091 q 0,5.378134 2.5687,9.793003 2.64892,4.4148 7.06372,7.06372 4.41487,2.56871 9.79301,2.56871 5.37806,0 9.71271,-2.56871 4.4148,-2.64892 6.9835,-7.06372 2.64893,-4.414869 2.64893,-9.793003 V 44.985116 h 16.69614 l 0.0804,80.270214 h -16.69622 l -0.0804,-8.66916 q -4.09379,4.97675 -10.19438,7.86647 -6.10053,2.88972 -13.08404,2.88972 -8.90996,0 -16.21455,-4.33458 -7.30459,-4.33458 -11.63917,-11.63917 Q 415.55,104.06402 415.55,95.15399 Z m 84.61998,30.10134 V 4.8500444 H 516.8662 V 125.25533 Z m 65.99702,2.08703 q -11.07729,0 -20.22811,-5.69922 -9.07054,-5.69915 -14.5289,-15.25129 -5.37813,-9.632421 -5.37813,-21.271663 0,-11.719392 5.37813,-21.351817 5.45836,-9.632426 14.5289,-15.331647 9.15082,-5.699152 20.22811,-5.699152 11.07729,0 20.14783,5.699152 9.15082,5.699221 14.52889,15.331647 5.45835,9.632425 5.45835,21.351817 0,11.639242 -5.45835,21.271663 -5.37807,9.55214 -14.52889,15.25129 -9.07054,5.69922 -20.14783,5.69922 z m 0,-16.69621 q 6.66242,0 11.96026,-3.5319 5.29784,-3.5319 8.34807,-9.311338 3.13059,-5.859731 3.13059,-12.682725 0,-6.983503 -3.21081,-12.843234 -3.13058,-5.859661 -8.42843,-9.311337 -5.29777,-3.531827 -11.79968,-3.531827 -6.5822,0 -11.96026,3.531827 -5.29784,3.531896 -8.42836,9.391627 -3.0503,5.85973 -3.0503,12.762944 0,7.144082 3.21081,12.923524 3.2108,5.779439 8.50865,9.231119 5.37813,3.37132 11.71946,3.37132 z"
       id="text4"
       aria-label="Simulo" />
    <path
       id="path4"
       style="mix-blend-mode:lighten;fill:#a9bc67;fill-opacity:1;stroke-width:0.188672"
       class="a"
       d="M 67.733454,3.1150332e-5 C 49.885105,3.1150332e-5 35.470545,14.414591 35.470545,32.26294 c 0,12.024671 6.547736,22.483217 16.27515,28.032953 -8.282623,4.980015 -14.05312,13.694106 -15.000506,23.825393 -0.08944,0.371633 -0.142829,0.75838 -0.142829,1.158579 v 1.792364 43.488991 c 0,2.71687 2.188611,4.90548 4.905481,4.90548 h 52.639537 c 2.71687,0 4.905481,-2.18861 4.905481,-4.90548 V 87.072229 85.279865 c 0,-0.400754 -0.05547,-0.787848 -0.142829,-1.160382 C 97.958554,73.950964 92.147149,65.211982 83.81516,60.241743 93.490504,54.678278 99.996016,44.248784 99.996016,32.26294 99.996016,14.414591 85.581455,3.1150332e-5 67.733038,3.1150332e-5 Z" />
  </g>
</svg>
